<svg xmlns="http://www.w3.org/2000/svg" viewBox="0 0 2000 1001" id="mapa-mundo">
  <style>
    .country {
      fill: #4CAF50;
      stroke: #FFFFFF;
      stroke-width: 0.5;
      transition: transform 0.2s ease;
    }
    .country:hover {
      transform: scale(1.2);
      transition: transform 0.2s ease;
    }
  </style>
  <!-- Mexico -->
  <path
    class="country"
    d="M365,152 Q450,160 530,220 Q540,260 560,280 Q590,300 610,330 Q600,370 570,390 Q530,400 500,410 Q470,410 430,400 Q390,400 350,370 Q330,340 310,300 Q300,260 280,230 Q270,190 320,160 Q345,150 365,152 Z"
    title="Mexico"
  ></path>
  <!-- Colombia -->
  <path
    class="country"
    d="M420,320 Q440,360 460,370 Q470,390 460,420 Q450,440 430,460 Q410,480 390,480 Q370,460 340,440 Q320,410 310,370 Q290,340 280,320 Q270,290 270,270 Q280,250 300,240 Q320,250 350,270 Q360,290 370,290 Z"
    title="Colombia"
  ></path>
  <!-- Brazil -->
  <path
    class="country"
    d="M670,470 Q710,500 740,530 Q760,560 770,580 Q790,600 790,620 Q780,640 760,660 Q730,680 700,680 Q670,660 630,640 Q600,620 570,590 Q550,560 530,530 Q520,500 520,470 Q530,450 550,430 Q580,420 610,430 Q640,440 670,470 Z"
    title="Brazil"
  ></path>
  <!-- Saudi Arabia -->
  <path
    class="country"
    d="M1400,440 Q1440,470 1480,500 Q1500,530 1510,550 Q1530,570 1530,590 Q1520,610 1500,630 Q1470,650 1440,650 Q1410,630 1370,610 Q1340,590 1310,560 Q1290,530 1270,500 Q1260,470 1260,440 Q1270,420 1290,400 Q1320,390 1350,400 Q1380,410 1400,440 Z"
    title="Saudi Arabia"
  ></path>
  <!-- Ghana -->
  <path
    class="country"
    d="M1000,480 Q1040,500 1070,520 Q1090,540 1100,560 Q1120,580 1120,600 Q1110,620 1090,640 Q1060,660 1030,660 Q1000,640 960,620 Q930,600 900,570 Q880,540 860,500 Q850,470 850,440 Q860,420 880,400 Q910,390 940,400 Q970,410 1000,480 Z"
    title="Ghana"
  ></path>
  <!-- UAE -->
  <path
    class="country"
    d="M1200,460 Q1240,480 1270,500 Q1290,520 1300,540 Q1320,560 1320,580 Q1310,600 1290,620 Q1260,640 1230,640 Q1200,620 1160,600 Q1130,580 1100,550 Q1080,520 1060,480 Q1050,450 1050,420 Q1060,400 1080,380 Q1110,370 1140,380 Q1170,390 1200,460 Z"
    title="UAE"
  ></path>
</svg>
