 <svg  version="1.0" xmlns="http://www.w3.org/2000/svg"  width="500.000000pt" height="600.000000pt" viewBox="0 0 500.000000 600.000000"  preserveAspectRatio="xMidYMid meet">  <g transform="translate(0.000000,600.000000) scale(0.050000,-0.050000)" fill="#00ad9a" stroke="none"> <path d="M4055 9368 c-7 -7 -75 -14 -151 -16 -152 -4 -263 -63 -309 -165 -30 -65 20 -122 79 -90 60 32 119 7 212 -89 46 -48 91 -87 99 -88 25 0 17 41 -15 73 -31 31 -41 107 -14 107 8 0 17 18 19 40 1 22 -9 40 -24 40 -14 0 -41 23 -59 50 -32 49 -32 50 16 50 27 0 52 -8 55 -17 15 -38 200 -103 238 -83 45 25 79 26 79 2 0 -19 -141 -93 -165 -86 -26 7 -16 -30 14 -55 23 -19 45 -19 102 -1 45 15 114 19 182 10 103 -12 109 -11 90 23 -30 56 -148 161 -196 175 -23 8 -47 31 -53 53 -6 23 -27 39 -52 39 -23 0 -42 9 -42 20 0 21 -85 28 -105 8z"/> <path d="M3089 9163 c-149 -20 -277 -124 -318 -259 l-14 -46 -594 13 c-729 16 -665 44 -670 -296 -4 -344 -82 -311 747 -317 623 -5 697 -9 765 -42 92 -45 93 -44 -5 -98 -86 -49 -209 -211 -232 -306 l-14 -58 96 13 c52 7 112 13 133 13 47 0 49 34 2 45 -26 7 -21 12 20 24 33 9 55 29 55 51 0 19 12 45 28 58 33 28 102 -99 86 -160 -10 -35 3 -38 188 -38 183 0 198 3 198 39 0 21 9 44 20 51 12 7 17 19 12 26 -4 8 5 26 20 40 33 30 77 -58 61 -121 -9 -34 9 -36 263 -31 256 6 274 9 281 46 8 45 80 130 109 130 10 0 14 -18 8 -40 -8 -30 2 -43 38 -52 37 -10 46 -22 37 -50 -11 -35 1 -38 145 -40 323 -5 656 6 689 23 22 12 52 9 87 -9 75 -39 650 -44 650 -5 0 65 -118 189 -214 224 -133 49 -137 57 -49 95 43 19 104 59 135 88 l58 54 801 -6 c946 -7 849 -41 861 304 12 332 59 307 -572 314 -858 10 -1049 3 -1016 -35 17 -19 47 -66 66 -105 46 -91 44 -90 80 -60 18 15 54 20 90 13 34 -7 60 -3 60 8 0 30 54 22 90 -14 23 -23 39 -26 54 -11 16 16 34 16 61 1 31 -16 36 -15 24 4 -11 19 -1 21 43 10 55 -13 87 -42 88 -77 0 -9 -8 -11 -19 -5 -10 6 -24 3 -30 -7 -11 -18 363 -42 380 -24 8 8 279 3 369 -7 28 -3 75 -7 106 -8 74 -4 49 -43 -27 -43 -47 0 -59 -9 -59 -43 0 -24 -6 -38 -13 -31 -7 7 -29 4 -50 -7 -26 -15 -37 -14 -37 3 0 16 -11 14 -34 -5 -23 -18 -29 -19 -19 -2 9 14 6 25 -7 25 -12 0 -17 9 -11 19 10 16 -105 15 -149 0 -5 -2 -17 -3 -25 -1 -8 1 -15 -11 -15 -27 0 -22 -13 -24 -65 -10 -86 25 -95 24 -95 -11 0 -16 -8 -30 -17 -30 -10 0 -17 18 -15 40 1 21 -7 39 -18 40 -11 0 -20 -11 -20 -23 0 -38 -88 -34 -100 4 -25 77 -630 91 -616 14 5 -28 -11 -67 -44 -104 -67 -77 -97 -46 -55 59 166 419 -360 902 -745 684 -135 -77 -230 -342 -130 -368 31 -8 35 -18 20 -47 -27 -50 -25 -72 4 -43 37 37 112 28 136 -16 12 -22 30 -40 41 -40 10 0 19 18 19 40 0 45 39 53 76 16 20 -20 33 -20 63 -1 57 35 168 -5 143 -52 -27 -49 -3 -143 35 -144 41 0 103 -46 103 -75 0 -36 -106 -124 -150 -125 -22 -1 -58 -10 -80 -20 -33 -15 -30 -17 20 -13 54 4 60 -2 60 -56 0 -73 -158 -106 -184 -38 -16 44 -70 96 -108 104 -46 11 -66 41 -67 99 -1 46 -9 54 -51 50 -38 -3 -61 13 -96 66 -34 53 -55 68 -84 59 -107 -34 -91 258 23 428 l60 89 -46 36 c-64 49 -161 65 -241 41 -66 -21 -192 -47 -266 -56 -180 -22 -217 -37 -290 -112 -41 -43 -87 -81 -102 -83 -16 -2 -41 -12 -56 -22 -23 -14 -26 -2 -15 66 14 86 -21 122 -41 43 -6 -22 -19 -40 -29 -40 -9 0 -15 -40 -12 -90 3 -56 14 -90 30 -90 34 0 31 -89 -5 -160 -19 -36 -22 -62 -10 -70 30 -18 62 8 56 46 -12 68 64 49 94 -24 38 -90 38 -99 -5 -82 -60 23 -205 22 -205 -3 0 -12 -33 -38 -74 -58 -41 -19 -102 -61 -135 -93 -160 -154 -651 -109 -651 59 0 66 -50 145 -91 145 -16 0 -29 10 -29 22 0 12 -11 18 -25 13 -14 -5 -25 -21 -25 -37 0 -17 -17 -26 -45 -22 -46 7 -62 -23 -25 -46 12 -7 15 -21 9 -32 -6 -10 -21 -13 -33 -5 -12 7 -47 12 -79 11 -60 -1 -71 14 -35 50 55 55 0 106 -58 52 -42 -39 -68 -47 -119 -39 -36 6 -62 4 -57 -3 11 -18 -339 -12 -368 6 -12 8 -45 8 -73 1 -36 -9 -46 -6 -36 11 10 16 7 19 -10 9 -38 -24 -167 -38 -154 -17 6 11 -16 15 -49 10 -49 -7 -63 -1 -72 34 -6 25 -32 47 -63 54 -29 6 -62 14 -73 17 -70 20 272 33 692 28 l492 -7 -14 50 c-27 96 -1 202 43 179 21 -12 33 -30 26 -40 -6 -10 12 -19 40 -19 35 0 51 -11 51 -34 0 -30 3 -30 27 3 35 48 59 11 35 -54 -14 -37 -12 -48 9 -48 15 0 23 7 17 16 -6 10 4 17 21 17 17 0 31 12 31 28 0 15 19 32 42 38 81 21 29 64 -69 58 -102 -7 -131 57 -67 145 55 74 184 53 184 -29 0 -38 11 -77 24 -86 13 -8 19 -29 12 -47 -6 -17 -2 -37 10 -45 36 -21 5 -106 -34 -93 -27 9 -27 7 2 -16 24 -18 28 -34 15 -50 -11 -12 -13 -18 -6 -13 7 5 25 0 40 -13 22 -17 27 -9 28 46 1 37 9 85 18 107 9 23 7 51 -5 66 -15 19 -9 29 24 38 27 7 40 22 34 39 -20 52 80 172 115 137 17 -16 40 -30 52 -30 11 0 21 -12 21 -28 0 -34 62 -51 185 -52 53 0 116 -11 140 -25 25 -14 48 -27 52 -29 4 -2 1 -31 -7 -64 -11 -53 -19 -59 -50 -42 -51 28 -167 25 -196 -4 -19 -19 -24 -19 -24 1 0 14 -19 22 -45 18 -64 -9 -99 -35 -88 -65 13 -33 -25 -70 -71 -70 -52 0 -49 93 4 110 22 7 35 21 29 31 -33 54 -139 -21 -122 -85 5 -21 -2 -43 -16 -49 -16 -5 -22 -27 -16 -51 7 -25 -1 -48 -20 -59 -28 -15 -29 -24 -3 -75 35 -70 77 -90 109 -51 17 21 33 23 61 8 33 -18 36 -14 25 40 -9 48 -4 63 26 74 20 7 61 39 91 70 61 64 99 71 145 26 59 -60 21 -169 -59 -169 -59 0 -150 -40 -150 -65 0 -11 16 -13 35 -4 30 13 94 25 180 33 13 2 30 19 36 39 6 21 18 37 26 37 8 0 16 22 18 49 5 60 74 182 100 177 10 -2 19 16 19 40 -1 127 6 153 38 140 43 -16 20 67 -34 123 -46 48 -76 24 -41 -32 14 -22 20 -47 13 -54 -7 -7 -21 1 -31 17 -37 63 -51 76 -127 127 -57 39 -103 53 -175 53 -108 0 -133 34 -33 44 l65 6 -55 36 c-63 41 -251 58 -405 37z m2220 -274 c31 -31 43 -131 19 -155 -23 -23 -168 65 -168 102 0 79 91 111 149 53z m-877 -58 c13 -56 -58 -191 -101 -191 -80 0 -134 153 -61 172 27 7 59 25 72 40 35 43 76 33 90 -21z m325 -29 c22 -14 21 -26 -7 -69 -40 -61 -61 -66 -86 -20 -42 75 21 135 93 89z m943 -2 c55 0 157 -107 164 -170 5 -49 -2 -60 -34 -60 -27 0 -39 14 -40 45 0 24 -8 44 -18 43 -10 -1 -24 9 -31 21 -10 16 -30 17 -69 2 -62 -24 -120 -2 -149 54 -32 63 -5 91 74 77 40 -6 87 -12 103 -12z m-912 -201 c42 -37 87 -107 116 -180 25 -65 53 -119 62 -119 8 0 43 -31 76 -69 33 -38 110 -93 169 -122 105 -52 126 -89 49 -89 -20 0 -64 -22 -96 -50 l-59 -49 -52 79 c-72 108 -163 156 -193 101 -27 -52 -88 -84 -178 -92 -39 -4 -126 -12 -192 -19 -250 -25 -371 184 -256 442 96 214 397 305 554 167z m-1273 -9 c-4 -48 -75 -77 -75 -30 0 11 9 20 19 20 11 0 15 14 8 30 -7 19 0 30 21 30 21 0 30 -16 27 -50z m3273 18 c8 -20 -5 -24 -54 -15 -92 18 -105 38 -25 40 40 1 73 -9 79 -25z m-988 -160 c0 -14 -49 -8 -77 10 -22 13 -22 26 -3 62 l24 44 28 -54 c15 -30 28 -58 28 -62z m-1772 -180 c6 -15 3 -28 -6 -28 -9 0 -13 -25 -9 -55 4 -30 2 -44 -5 -30 -32 68 -52 18 -39 -98 13 -116 12 -122 -27 -112 -22 6 -44 0 -50 -12 -14 -35 -54 30 -44 71 10 42 -15 63 -113 97 -92 33 -93 44 -10 75 36 13 95 49 132 81 69 60 150 65 171 11z m-499 -236 c66 -5 123 -18 127 -30 4 -12 21 -22 37 -22 16 0 23 -10 16 -21 -7 -12 -26 -17 -41 -11 -16 6 -58 -7 -93 -28 -77 -47 -132 -51 -148 -10 -6 16 -19 25 -29 19 -10 -6 -18 -2 -18 10 0 11 -13 21 -29 21 -17 0 -26 -11 -21 -25 11 -30 -82 -102 -110 -85 -13 8 -13 25 -2 47 23 42 -8 103 -51 103 -23 0 -26 7 -11 25 21 25 90 26 373 7z m660 -8 c20 -65 -60 -199 -120 -199 -64 0 -55 67 24 170 56 74 79 81 96 29z"/> <path d="M4405 8524 c-48 -7 -105 -74 -105 -123 0 -20 10 -16 31 15 39 55 63 56 79 4 19 -59 -7 -120 -51 -120 -45 0 -52 -36 -11 -52 16 -6 34 -30 40 -54 7 -24 37 -61 67 -82 30 -21 49 -32 41 -23 -7 8 3 33 23 55 48 51 62 147 27 182 -33 33 -15 89 31 98 51 10 130 -95 115 -155 -6 -27 -17 -70 -24 -96 -8 -33 -2 -51 21 -60 18 -7 29 -5 23 3 -5 9 7 26 28 39 29 18 39 17 48 -6 14 -38 32 -36 92 12 30 24 36 35 15 27 -20 -7 -35 -3 -35 10 0 12 8 22 18 22 25 0 38 112 17 150 -12 21 -32 27 -58 19 -23 -7 -54 0 -73 17 -19 16 -54 35 -79 43 -25 8 -45 26 -45 41 0 43 -29 51 -98 25 -42 -16 -69 -18 -78 -4 -8 11 -34 17 -59 13z m130 -286 c2 -30 -6 -38 -28 -30 -17 7 -41 12 -54 13 -22 0 43 59 67 59 6 0 13 -19 15 -42z"/> <path d="M3333 8783 c-33 -13 -34 -18 -6 -41 35 -29 73 -14 73 29 0 32 -11 34 -67 12z"/> <path d="M5340 8481 c-23 -44 5 -86 47 -70 33 13 43 -13 34 -96 -6 -60 107 -47 136 16 28 62 28 69 2 69 -11 0 -42 24 -67 53 -53 62 -126 75 -152 28z"/> <path d="M5274 8447 c-20 -20 -17 -87 4 -87 26 0 46 64 26 84 -9 9 -23 11 -30 3z"/> <path d="M1317 8328 c-48 -63 -107 -136 -131 -162 -24 -25 -39 -46 -34 -46 6 0 -20 -38 -57 -85 -38 -47 -89 -115 -115 -152 l-46 -68 48 26 c129 67 259 162 248 179 -7 11 -3 20 9 20 53 0 211 356 174 393 -5 5 -48 -42 -96 -105z"/> <path d="M7642 8248 c7 -72 23 -141 36 -154 12 -12 22 -38 22 -59 0 -20 14 -42 31 -48 17 -7 26 -25 20 -41 -6 -15 -2 -23 9 -16 10 6 30 -7 44 -29 14 -23 36 -41 48 -41 13 0 35 -14 49 -31 156 -188 83 -9 -150 367 -135 219 -126 215 -109 52z"/> <path d="M890 7765 c-11 -8 -21 -67 -23 -130 -3 -120 15 -141 113 -132 95 10 145 -3 121 -31 -57 -69 -65 -69 3545 -84 l3316 -14 -13 53 c-8 33 -5 53 8 53 12 0 28 -22 35 -49 11 -46 78 -88 102 -64 6 6 -8 35 -32 65 -30 38 -42 81 -41 146 l1 92 43 -85 c24 -47 50 -85 59 -85 21 0 21 55 0 63 -9 4 -31 43 -48 87 -27 69 -40 81 -99 85 -60 5 -63 3 -32 -22 29 -23 -122 -27 -1000 -25 -1303 3 -1902 -7 -1916 -30 -6 -10 -29 -18 -51 -18 -22 0 -36 7 -31 16 15 23 -508 39 -937 28 -99 -2 -454 5 -790 17 -335 11 -979 28 -1430 36 -451 9 -833 22 -850 29 -16 8 -39 7 -50 -1z m4238 -168 c-28 -45 -81 -53 -104 -16 -22 34 -18 38 45 35 38 -1 65 -10 59 -19z m2537 -112 c-146 -3 -384 -3 -530 0 -146 3 -26 6 265 6 292 0 411 -3 265 -6z"/> <path d="M889 7399 c-7 -12 -25 -17 -40 -11 -34 12 -52 -42 -59 -176 -3 -56 -7 -102 -9 -102 -4 0 -14 -38 -32 -120 -5 -22 -14 -76 -20 -120 -5 -44 -18 -107 -29 -140 -10 -33 -24 -105 -31 -160 -7 -55 -17 -122 -22 -150 -25 -142 -45 -281 -55 -380 -39 -414 -54 -776 -32 -790 18 -11 42 109 41 204 0 35 8 69 18 76 11 6 14 25 8 41 -6 16 0 43 13 59 23 28 14 39 -26 32 -10 -2 -10 8 0 23 9 14 17 52 19 85 2 33 5 60 7 60 2 0 7 59 12 130 5 72 18 133 29 137 10 3 13 16 6 27 -16 28 -21 176 -5 176 7 0 8 23 3 50 -6 32 -1 50 15 50 20 0 20 6 0 30 -20 24 -20 30 0 30 16 0 20 17 11 52 -7 28 -5 62 5 75 10 13 24 86 32 163 16 178 21 206 38 223 8 7 14 38 14 67 0 81 81 322 112 334 32 12 38 46 9 46 -10 0 -25 -10 -32 -21z"/> <path d="M8129 7323 c6 -20 16 -72 22 -115 5 -43 22 -136 38 -206 16 -71 34 -170 41 -220 6 -51 20 -123 30 -162 10 -38 23 -169 30 -290 7 -121 17 -247 23 -280 59 -309 60 -1146 2 -1168 -59 -22 -294 -59 -535 -83 -104 -10 -221 -24 -260 -30 -38 -6 -124 -12 -190 -12 -66 0 -129 -6 -139 -13 -11 -6 -54 -9 -95 -6 -46 3 -76 -4 -76 -17 0 -15 -11 -16 -36 -3 -43 23 -88 1 -67 -33 15 -24 59 -22 128 5 21 9 35 5 35 -9 0 -13 9 -18 20 -11 11 7 20 3 20 -9 0 -11 9 -21 20 -21 11 0 18 11 15 25 -3 16 25 27 80 31 47 4 85 15 85 25 0 11 19 19 41 19 23 0 36 -9 30 -19 -8 -12 16 -16 58 -10 39 5 103 13 142 18 38 5 80 15 92 23 12 7 28 2 37 -12 11 -18 25 -19 58 -1 23 13 52 17 63 10 12 -7 44 3 72 21 29 19 46 24 38 12 -9 -16 2 -16 40 -2 36 14 62 14 78 1 17 -14 36 -11 63 9 52 40 95 37 151 -9 44 -37 45 -40 7 -41 -30 0 -33 -5 -13 -18 14 -9 26 -22 25 -29 -1 -7 -1 -15 0 -18 8 -29 21 -99 28 -158 l9 -73 -185 -12 c-959 -63 -5500 -60 -7281 4 -294 11 -381 8 -398 -11 -16 -20 -12 -23 14 -12 31 11 33 7 13 -29 -28 -53 -28 -70 1 -52 16 10 20 1 12 -29 -6 -24 -4 -47 5 -53 8 -5 22 -34 29 -65 27 -107 62 -125 242 -125 118 0 171 -8 188 -29 63 -75 436 -95 579 -30 66 30 113 37 190 29 182 -19 3250 -43 4401 -34 1012 7 1133 5 1266 -27 183 -43 446 -29 525 28 36 25 93 37 200 40 188 5 203 26 280 376 35 158 30 1563 -6 1621 -7 11 -17 100 -22 198 -5 98 -12 183 -14 188 -2 6 -7 33 -10 60 -3 28 -10 77 -16 110 -6 33 -24 137 -39 230 -43 260 -95 487 -118 515 -32 40 -80 31 -66 -12z m-5559 -2966 c1116 -21 3079 -15 5030 14 537 8 721 5 695 -11 -19 -12 -35 -31 -35 -43 0 -31 -80 -126 -107 -128 -53 -3 -173 -72 -173 -99 0 -81 -620 -82 -713 -2 -51 44 -327 65 -350 27 -10 -16 -22 -16 -40 -1 -15 11 -48 18 -73 13 -26 -4 -42 0 -37 9 6 8 -32 10 -83 4 -52 -6 -138 -3 -192 6 -58 10 -103 9 -110 -2 -14 -22 -142 -28 -142 -7 0 8 -33 11 -73 6 -50 -5 -68 -1 -59 14 8 13 5 23 -7 23 -11 0 -21 -8 -21 -18 0 -10 -14 -23 -31 -30 -18 -6 -26 -3 -19 8 7 12 -12 15 -49 7 -38 -7 -61 -4 -61 10 0 12 -13 17 -30 10 -16 -6 -25 -18 -20 -27 5 -9 -24 -8 -65 1 -58 13 -82 10 -113 -17 -37 -33 -37 -33 -4 19 34 53 33 54 -7 43 -22 -6 -41 -17 -41 -24 0 -8 -36 -14 -80 -13 -57 1 -80 10 -80 31 0 20 -6 22 -15 8 -24 -37 -577 -52 -606 -17 -36 44 -359 35 -345 -9 7 -23 5 -25 -8 -7 -20 27 -270 27 -253 0 5 -8 -4 -15 -21 -15 -16 0 -35 9 -43 21 -8 14 -21 14 -41 -2 -15 -13 -28 -16 -28 -6 0 30 -145 32 -163 3 -13 -21 -16 -21 -17 1 0 23 -6 23 -30 3 -21 -17 -30 -18 -30 -2 0 12 -19 22 -41 22 -28 0 -36 -8 -26 -25 8 -15 -1 -12 -23 5 -21 17 -31 19 -23 6 18 -30 -324 -31 -362 -1 -17 14 -25 12 -25 -4 0 -13 -9 -18 -20 -11 -11 7 -31 6 -43 -2 -37 -23 -145 -22 -162 1 -10 14 -14 14 -15 0 0 -23 -102 -22 -139 0 -11 7 -21 2 -21 -11 0 -15 -17 -9 -43 14 -24 21 -37 26 -28 11 16 -27 -223 -21 -268 6 -10 7 -24 3 -30 -7 -7 -11 -28 -16 -49 -12 -42 8 -207 16 -222 10 -35 -13 -140 -14 -140 -2 0 17 -108 12 -139 -7 -11 -7 -21 -4 -21 8 0 30 -60 26 -61 -4 0 -16 -9 -13 -25 8 -22 28 -35 29 -95 9 -38 -13 -96 -22 -129 -20 -43 3 -72 -11 -104 -48 -89 -105 -589 -87 -669 25 -26 37 -56 67 -67 67 -116 6 -230 64 -230 117 0 13 -15 40 -34 59 -33 32 -14 33 355 21 214 -7 929 -23 1589 -36z"/> <path d="M1032 7218 c-5 -27 -15 -106 -22 -178 -18 -202 -204 -1801 -223 -1924 l-12 -75 528 -5 c290 -3 1597 -9 2904 -12 l2378 -5 -12 185 c-7 102 -26 492 -43 866 -17 374 -36 790 -42 925 l-12 245 -2625 0 c-1444 0 -2667 6 -2717 13 -85 11 -93 9 -102 -35z m2954 -50 c-6 -16 0 -28 12 -28 12 0 22 13 22 28 0 23 50 29 263 31 232 1 259 -2 237 -29 -20 -24 -20 -30 2 -30 18 0 20 -6 5 -21 -33 -33 -134 -1 -105 33 18 22 14 28 -20 28 -24 0 -42 -13 -42 -30 0 -16 -9 -30 -20 -30 -11 0 -20 14 -20 30 0 17 -14 30 -32 30 -20 0 -28 -11 -21 -29 12 -31 -361 -56 -381 -25 -20 32 12 69 61 69 34 0 46 -9 39 -27z m1104 -151 c36 -7 52 -200 19 -234 -15 -16 -88 22 -84 43 3 13 -13 22 -35 20 -22 -2 -46 7 -54 20 -12 18 -15 18 -16 0 0 -13 15 -33 34 -43 29 -16 22 -22 -38 -33 -100 -19 -116 -3 -116 110 0 114 17 129 134 122 61 -3 86 3 86 21 1 19 5 20 15 4 8 -12 33 -26 55 -30z m-562 -42 c-2 -19 -4 -165 -5 -325 l-3 -290 -1396 0 c-1478 0 -1512 2 -1499 90 8 59 75 65 76 6 0 -42 2 -43 22 -9 27 47 -2 79 -66 70 -55 -8 -75 -82 -35 -130 22 -26 18 -29 -33 -24 -70 8 -90 73 -39 125 30 29 28 32 -34 32 -36 0 -56 -7 -44 -15 41 -27 46 -145 6 -145 -87 0 -92 13 -66 164 13 79 31 223 38 320 l14 176 1533 -5 c1446 -5 1533 -7 1531 -40z m955 -65 c-9 -122 -13 -129 -64 -116 -38 10 -38 14 -8 47 25 28 28 44 10 73 -16 26 -21 28 -19 6 6 -62 -3 -80 -38 -80 -20 0 -46 10 -58 22 -15 15 -26 15 -36 -2 -8 -14 -4 -31 10 -40 18 -11 13 -19 -17 -29 -67 -21 -83 3 -83 121 l0 110 155 -6 155 -6 -7 -100z m359 85 c3 -41 -5 -205 -11 -210 -2 -3 -35 1 -72 8 -46 9 -57 17 -34 25 27 10 25 16 -16 35 -28 13 -54 16 -60 5 -6 -10 -2 -18 10 -18 11 0 21 -11 21 -23 0 -13 -6 -18 -13 -11 -7 8 -25 4 -40 -8 -55 -46 -87 -5 -87 111 l0 111 150 0 c106 0 151 -7 152 -25z m374 -98 l6 -114 -156 5 -156 5 -6 114 -6 115 156 -6 156 -6 6 -113z m-4949 -107 c-6 -17 0 -30 16 -31 19 0 16 -8 -8 -27 -20 -15 -31 -40 -25 -56 13 -32 -42 -176 -67 -176 -39 0 -38 27 1 59 42 34 34 95 -9 68 -14 -9 -17 -2 -9 20 7 18 5 33 -4 33 -34 0 5 104 46 120 61 25 72 23 59 -10z m3860 -170 l-2 -110 -138 -11 c-184 -15 -187 -13 -187 110 0 133 0 134 179 127 l151 -6 -3 -110z m369 -5 l6 -115 -161 0 -161 0 0 121 0 121 155 -6 155 -6 6 -115z m360 0 l6 -115 -161 0 -161 0 0 107 c0 135 1 136 169 129 l141 -6 6 -115z m360 101 c26 -26 33 -208 9 -223 -9 -5 -83 -4 -165 4 l-150 13 -6 87 c-10 136 -3 143 151 143 80 0 147 -10 161 -24z m-4964 -337 c0 -54 -6 -99 -14 -99 -40 0 -101 -122 -77 -151 20 -24 19 -28 -4 -19 -19 8 -30 -6 -33 -43 -5 -70 -13 -75 -46 -34 -24 30 -24 32 2 18 24 -13 24 -10 -2 18 -30 31 -29 40 4 105 36 70 34 118 -3 95 -11 -6 -19 -2 -19 10 0 11 12 21 27 21 37 0 70 82 53 130 -11 31 -4 43 28 52 70 19 84 1 84 -103z m3870 47 c11 -11 18 -64 14 -118 l-6 -98 -160 0 -160 0 -6 97 c-4 53 2 107 13 120 24 28 276 28 305 -1z m353 16 c17 -1 25 -40 25 -123 l0 -121 -155 6 -155 6 -6 108 c-8 136 10 144 291 124z m381 -119 l6 -125 -156 6 -156 6 -6 108 c-8 130 -3 133 170 132 l136 -2 6 -125z m360 106 c36 -11 25 -240 -11 -237 -14 1 -83 3 -155 5 l-130 3 0 117 c0 64 5 121 11 128 12 11 238 -2 285 -16z m-3786 -155 c88 -3 -117 -8 -456 -10 -339 -2 -612 3 -607 11 8 14 671 13 1063 -1z m2107 -4 c-22 -22 -1592 -34 -1606 -12 -10 16 213 22 801 22 448 0 810 -4 805 -10z m-2917 -208 c0 -160 -3 -162 -184 -162 l-159 0 14 115 c18 152 10 145 180 145 l149 0 0 -98z m367 83 c5 -9 4 -65 -4 -125 l-13 -110 -158 -6 -158 -6 12 111 c6 60 17 119 24 130 14 24 283 29 297 6z m364 -7 c7 -11 7 -70 0 -130 l-14 -110 -154 6 -153 6 7 110 c4 61 11 117 16 125 15 24 283 18 298 -7z m359 -108 l0 -120 -155 -6 -155 -6 0 118 c0 147 -1 147 169 140 l141 -6 0 -120z m384 102 c2 -2 -1 -55 -8 -118 l-12 -114 -158 0 -159 0 14 115 c8 63 17 121 21 127 6 10 288 0 302 -10z m362 -109 l-6 -113 -155 -6 -155 -6 0 119 c0 138 -5 135 181 126 l141 -6 -6 -114z m350 111 c16 -6 22 -47 17 -121 l-7 -113 -158 0 -158 0 0 118 c0 65 9 122 20 125 28 10 257 3 286 -9z m384 -104 l0 -120 -159 0 -159 0 6 110 c7 144 2 140 168 134 l144 -5 0 -119z m378 114 c5 -9 5 -68 -2 -130 l-12 -114 -157 0 -157 0 0 117 c0 64 6 122 13 130 20 19 303 16 315 -3z m568 -121 l6 -123 -171 0 -171 0 0 117 c0 145 -9 139 176 134 l154 -4 6 -124z m360 0 l6 -125 -156 6 -156 6 -6 97 c-9 142 -7 143 158 142 l148 -1 6 -125z m374 7 l0 -120 -155 -6 -155 -6 0 118 c0 145 -9 137 165 135 l145 -1 0 -120z m373 77 c40 -102 20 -210 -38 -203 -33 3 -55 18 -55 36 0 20 -16 28 -45 24 -32 -5 -51 7 -64 40 -17 42 -19 41 -20 -20 -1 -59 -45 -107 -73 -79 -15 16 -33 193 -22 222 17 45 298 28 317 -20z m-4649 -274 c4 -4 1 -58 -6 -120 l-14 -113 -137 0 c-75 0 -144 0 -152 0 -26 -1 -29 201 -4 232 22 25 287 26 313 1z m259 7 l109 0 -6 -115 -6 -115 -162 -6 -161 -6 9 116 c9 117 31 154 81 136 14 -6 75 -10 136 -10z m740 0 l109 0 -6 -115 -6 -115 -155 -6 -155 -6 0 119 c0 119 18 150 77 131 14 -4 75 -8 136 -8z m480 -77 c-7 -40 -13 -93 -13 -118 0 -43 -7 -45 -161 -45 l-162 0 14 115 c18 140 12 137 189 128 l145 -6 -12 -74z m2053 78 c9 0 13 -57 10 -126 l-6 -125 -160 0 -160 0 -6 108 c-10 165 -5 166 322 143z m376 -102 c15 -144 5 -153 -167 -151 l-145 2 -6 118 c-7 141 -6 142 169 141 l137 0 12 -110z m361 104 c8 -2 14 -57 14 -123 l1 -120 -129 -3 c-71 -2 -140 -4 -154 -5 -26 -2 -47 187 -27 240 8 22 199 29 295 11z m384 2 c5 -8 12 -69 16 -135 l7 -120 -160 0 -160 0 -14 110 c-8 61 -11 121 -6 135 10 28 301 37 317 10z m-3914 -80 c-7 -41 -13 -95 -13 -120 0 -43 -7 -45 -160 -45 -179 0 -175 -4 -147 165 l12 75 160 0 160 0 -12 -75z m1107 -45 l0 -120 -160 0 -160 0 0 120 0 120 160 0 160 0 0 -120z m380 12 c0 -132 -16 -145 -174 -140 -159 6 -157 4 -149 136 l7 112 158 0 158 0 0 -108z m356 -17 l-6 -125 -150 0 -150 0 -6 125 -6 125 162 0 162 0 -6 -125z m380 0 l-6 -125 -150 0 -150 0 -6 125 -6 125 162 0 162 0 -6 -125z m-3416 89 c0 -23 -75 -82 -88 -69 -22 22 -12 45 18 45 17 0 30 9 30 20 0 11 9 20 20 20 11 0 20 -7 20 -16z m2300 -383 c0 -146 -15 -157 -195 -146 l-145 10 0 113 c0 147 9 153 189 145 l151 -6 0 -116z m-1880 21 c0 -159 -3 -162 -182 -162 l-158 0 0 55 c0 30 6 89 13 130 l12 75 158 0 157 0 0 -98z m373 5 c-7 -51 -13 -109 -13 -130 0 -33 -17 -37 -163 -37 l-162 0 12 75 c7 41 13 100 13 130 l0 55 163 0 162 0 -12 -93z m374 78 c5 -9 4 -65 -4 -125 l-13 -110 -155 -6 -155 -6 0 69 c0 37 6 96 13 131 l12 62 146 0 c81 0 151 -7 156 -15z m369 -110 l-6 -125 -148 -6 c-176 -7 -177 -6 -166 141 l8 115 159 0 159 0 -6 -125z m380 0 l-6 -125 -148 -6 c-178 -7 -180 -5 -167 141 l10 115 158 0 159 0 -6 -125z m744 -5 l0 -130 -163 0 -162 0 12 75 c7 41 13 100 13 130 l0 55 150 0 150 0 0 -130z m325 116 c57 -10 88 -231 35 -249 -35 -12 -301 13 -300 28 0 8 0 65 0 126 l0 111 105 -3 c58 -2 130 -8 160 -13z m431 -121 l-6 -135 -119 -6 c-201 -10 -212 -3 -201 131 4 63 9 122 9 130 1 8 73 15 162 15 l161 0 -6 -135z m580 0 l-6 -135 -160 0 -160 0 -6 108 c-9 161 -8 162 176 162 l162 0 -6 -135z m374 -5 l0 -130 -160 0 -160 0 -6 108 c-9 163 -8 165 171 158 l155 -6 0 -130z m377 16 c16 -155 12 -159 -169 -152 l-148 6 -6 135 -6 135 158 0 158 0 13 -124z m132 79 c10 -25 19 -34 20 -20 1 27 132 36 146 10 5 -8 6 -4 3 8 -6 27 47 53 74 36 10 -6 18 -69 18 -140 l0 -128 -165 4 -165 5 -6 108 c-9 157 33 222 75 117z m-3819 -336 c0 -41 -287 -57 -311 -17 -10 16 -19 14 -31 -5 -13 -21 -29 -22 -77 -3 -34 12 -61 15 -61 5 0 -20 -510 -16 -530 5 -45 45 42 54 510 51 457 -2 500 -5 500 -36z m100 0 c0 -28 -11 -40 -33 -35 -48 9 -56 51 -13 62 20 5 38 10 41 12 3 1 5 -17 5 -39z m48 6 c-10 -33 -9 -33 11 -1 33 51 281 43 281 -9 0 -30 -20 -35 -160 -35 -147 0 -160 3 -160 40 0 22 9 40 19 40 11 0 15 -16 9 -35z m537 5 c30 -41 12 -50 -105 -50 -90 0 -120 7 -120 28 0 49 191 68 225 22z m140 11 c49 -4 7 -61 -45 -61 -47 0 -60 9 -60 40 0 30 11 38 45 31 25 -4 52 -9 60 -10z m975 -2 c0 -5 151 -9 335 -8 184 2 377 -3 429 -11 58 -8 102 -6 115 7 12 12 21 13 21 2 0 -24 166 -25 183 -2 20 28 57 -5 57 -49 0 -27 -8 -35 -25 -25 -21 13 -738 31 -1015 24 -49 -1 -135 -2 -190 -2 -55 0 -110 -9 -123 -19 -15 -11 -29 -10 -37 4 -8 13 -37 17 -70 10 -63 -14 -99 20 -60 57 19 17 27 17 34 -2 5 -14 17 -20 27 -15 9 6 58 14 109 18 50 4 95 10 99 14 12 12 111 9 111 -3z m-680 -44 c0 -27 -10 -35 -35 -27 -19 6 -78 13 -130 15 -147 7 -117 48 35 49 114 0 130 -4 130 -37z m1920 2 c0 -22 -57 -46 -73 -30 -7 6 -7 25 0 42 12 31 73 22 73 -12z m102 23 c10 0 18 -13 18 -30 0 -19 -19 -30 -50 -30 -38 0 -50 11 -50 42 0 30 9 39 32 30 17 -7 40 -12 50 -12z m270 -10 c12 -3 34 1 49 10 15 10 42 9 62 -1 19 -11 39 -12 44 -4 11 17 149 16 166 -2 35 -35 -33 -50 -203 -44 -105 3 -190 -1 -190 -9 0 -8 -22 -10 -50 -5 -47 9 -65 43 -38 71 11 11 99 2 160 -16z m448 -20 c0 -14 -22 -25 -50 -25 -46 0 -66 32 -39 59 19 20 89 -7 89 -34z m235 22 c5 -6 5 -24 -2 -40 -14 -39 -123 -6 -142 42 -11 30 114 28 144 -2z"/> <path d="M3991 6975 c-37 -121 -31 -155 27 -155 62 0 104 131 54 165 -34 22 -72 18 -81 -10z m65 -58 c-8 -83 -56 -102 -56 -22 0 32 6 64 13 72 31 30 49 9 43 -50z"/> <path d="M1964 6963 c-24 -16 -39 -82 -50 -223 -4 -48 1 -50 111 -52 63 -1 115 6 115 15 0 9 -9 17 -20 17 -11 0 -20 27 -20 60 0 33 -8 60 -17 60 -10 0 -23 -27 -30 -60 -19 -97 -93 -84 -84 15 4 41 8 95 9 119 1 31 17 46 57 52 53 8 53 8 5 11 -27 1 -62 -5 -76 -14z"/> <path d="M2203 6954 c-12 -15 -24 -80 -28 -145 l-5 -119 79 0 c73 0 80 5 92 64 15 73 -8 106 -75 106 -80 0 -63 95 19 106 l65 8 -63 3 c-34 2 -72 -9 -84 -23z m97 -152 c0 -46 -27 -82 -62 -82 -37 0 -54 58 -25 87 20 20 87 16 87 -5z"/> <path d="M2681 6951 c-13 -16 -22 -45 -19 -65 2 -20 -2 -51 -11 -70 -31 -72 -5 -126 65 -132 136 -13 187 142 55 167 -92 17 -93 92 -1 111 l60 13 -63 2 c-34 2 -73 -10 -86 -26z m95 -176 c-9 -66 -76 -72 -76 -6 0 38 10 51 41 51 32 0 40 -11 35 -45z"/> <path d="M3474 6913 c-9 -42 -11 -82 -5 -88 22 -23 34 13 27 88 l-6 77 -16 -77z"/> <path d="M3620 6952 c0 -15 -22 -33 -50 -40 -73 -19 -69 -93 5 -90 34 2 42 6 20 12 -47 12 -44 47 5 60 34 9 61 86 30 86 -5 0 -10 -13 -10 -28z"/> <path d="M3772 6948 c-7 -17 -12 -49 -12 -70 0 -22 -14 -38 -32 -38 -24 0 -30 13 -23 50 5 28 3 55 -5 60 -17 11 -39 -104 -23 -120 46 -46 113 -5 116 70 3 86 -2 98 -21 48z"/> <path d="M3835 6923 c-22 -100 -20 -103 45 -103 58 0 60 4 58 85 -1 87 -6 86 -27 -10 -17 -79 -48 -68 -55 20 l-6 75 -15 -67z"/> <path d="M2540 6770 c0 -38 8 -70 18 -70 22 0 47 95 31 121 -25 41 -49 16 -49 -51z"/> <path d="M3551 6721 c-7 -12 1 -21 18 -21 23 0 31 -21 31 -84 0 -60 6 -78 21 -63 34 34 15 176 -24 183 -18 3 -39 -3 -46 -15z"/> <path d="M3720 6720 c-26 -17 -25 -19 5 -20 19 0 35 -9 35 -20 0 -11 -13 -20 -30 -20 -16 0 -30 -9 -30 -20 0 -11 9 -20 20 -20 11 0 20 -9 20 -20 0 -11 -18 -20 -40 -20 -22 0 -40 -9 -40 -20 0 -11 29 -20 66 -20 64 0 65 1 63 94 -2 98 -18 119 -69 86z"/> <path d="M3845 6727 c-39 -16 -29 -83 15 -97 22 -7 40 -21 40 -31 0 -11 -18 -19 -40 -19 -22 0 -40 -10 -40 -21 0 -12 25 -19 55 -15 51 6 55 13 55 96 0 90 -23 113 -85 87z"/> <path d="M4010 6720 c-7 -11 2 -20 19 -20 49 0 36 -34 -19 -48 -37 -9 -50 -26 -50 -62 0 -40 10 -50 50 -50 28 0 50 9 50 20 0 11 -13 20 -30 20 -44 0 -37 34 10 46 51 13 75 72 38 96 -37 23 -53 22 -68 -2z"/> <path d="M4120 6711 c0 -34 38 -39 220 -31 107 4 136 11 118 29 -29 29 -338 31 -338 2z"/> <path d="M1840 6634 c0 -19 -9 -34 -20 -34 -39 0 -19 -52 21 -55 54 -4 73 50 32 91 -31 30 -33 30 -33 -2z"/> <path d="M1633 6627 c-33 -34 -9 -67 47 -67 47 0 60 9 60 40 0 40 -75 58 -107 27z"/> <path d="M4200 6578 c0 -48 47 -42 56 9 4 19 -6 33 -25 33 -18 0 -31 -17 -31 -42z"/> <path d="M2160 6519 c-60 -7 -99 -14 -85 -16 14 -2 25 -16 25 -33 0 -16 9 -30 20 -30 11 0 20 14 20 30 0 17 14 30 30 30 17 0 30 -13 30 -30 0 -21 19 -29 65 -27 47 2 53 5 20 11 -61 12 -57 46 5 46 28 0 50 7 50 16 0 19 -37 20 -180 3z"/> <path d="M1761 6467 c2 -50 4 -52 19 -17 9 22 18 28 19 13 1 -23 7 -23 31 -3 25 21 30 17 32 -23 l2 -47 14 50 c12 42 16 45 27 15 8 -19 32 -35 54 -35 23 0 41 -11 41 -24 0 -17 6 -18 22 -2 76 76 -82 165 -177 99 -15 -11 -37 -8 -55 7 -26 21 -30 16 -29 -33z m241 3 c0 -11 -19 -23 -41 -26 -40 -7 -54 16 -27 43 19 20 68 7 68 -17z"/> <path d="M6711 7085 c-5 -13 -23 -19 -40 -13 -17 7 -31 2 -31 -11 0 -17 20 -20 65 -9 91 21 355 22 355 1 0 -10 20 -12 45 -6 68 17 687 21 713 4 13 -8 18 -32 11 -53 -15 -48 8 -123 32 -107 11 6 19 58 19 115 l0 104 -580 0 c-441 0 -582 -6 -589 -25z"/> <path d="M6592 6800 c-3 -5 -1 -86 3 -180 l9 -170 493 6 c450 6 773 -9 673 -32 -22 -5 -46 -17 -52 -28 -18 -28 -1058 -21 -1092 7 -20 17 -26 8 -26 -41 l0 -62 618 0 619 0 2 259 2 259 -623 -4 c-342 -2 -624 -8 -626 -14z m1131 -131 c39 -12 65 -69 42 -92 -19 -19 -1125 4 -1125 24 0 75 878 130 1083 68z m37 -149 c0 -13 -200 -20 -561 -20 -369 0 -557 7 -549 20 8 13 217 20 561 20 353 0 549 -7 549 -20z"/> <path d="M7808 6175 c-21 -25 -61 -81 -88 -125 -71 -117 -183 -197 -207 -148 -6 10 -8 8 -5 -6 3 -14 18 -27 34 -28 15 -1 48 -3 72 -5 47 -3 173 -101 131 -102 -14 -1 -25 -19 -25 -40 0 -29 -9 -36 -33 -27 -26 10 -31 5 -21 -21 15 -39 -7 -43 -45 -8 -22 20 -25 19 -15 -8 9 -28 3 -30 -48 -10 -32 12 -58 29 -58 37 0 9 -9 16 -19 16 -11 0 -15 -13 -8 -30 9 -24 -3 -28 -56 -23 -37 3 -88 -2 -114 -11 -38 -13 -45 -11 -36 14 6 16 3 30 -8 30 -10 0 -19 -9 -19 -19 0 -30 -134 -59 -211 -47 -48 8 -69 4 -69 -14 0 -15 -13 -19 -35 -11 -28 11 -30 9 -10 -12 21 -21 34 -21 65 -1 49 30 67 31 48 1 -8 -13 -6 -18 5 -11 10 6 30 5 43 -4 16 -9 -1 -24 -46 -42 -38 -15 -70 -35 -70 -45 0 -10 9 -12 20 -5 11 7 14 -1 8 -19 -16 -41 62 -42 160 -1 39 17 72 26 72 19 0 -6 13 1 28 15 15 14 24 33 19 41 -5 8 4 9 20 3 18 -7 34 4 42 28 10 33 28 39 121 34 70 -3 104 3 96 16 -8 13 -2 14 16 3 15 -10 42 -16 59 -13 54 9 180 -55 199 -102 10 -26 18 -32 19 -14 1 25 4 26 19 2 10 -16 14 -40 9 -53 -5 -14 0 -31 12 -38 11 -7 21 -29 21 -48 0 -19 32 -66 70 -103 l71 -69 -14 70 c-7 38 -28 101 -47 139 -62 128 -96 307 -109 569 -13 294 -11 286 -63 226z"/> <path d="M6770 5920 c-44 -8 -60 -16 -36 -17 24 -2 48 -10 54 -19 13 -22 152 -5 152 19 0 10 -24 12 -53 4 -37 -9 -49 -6 -39 10 8 13 12 22 8 20 -3 -1 -42 -9 -86 -17z"/> <path d="M6714 5300 c-92 -73 -71 -146 26 -90 28 16 104 29 172 29 132 1 160 13 125 54 -25 31 -172 36 -217 7 -21 -13 -33 -10 -41 12 -9 26 -19 24 -65 -12z"/> <path d="M549 5090 c1 -64 9 -107 21 -103 19 6 21 33 13 158 -6 102 -35 56 -34 -55z"/> <path d="M480 4784 c0 -67 9 -127 21 -135 11 -7 20 -27 18 -46 -4 -47 22 -123 43 -123 10 0 18 8 18 18 0 11 23 47 52 80 41 50 46 64 22 73 -19 8 -26 27 -18 55 15 59 58 101 75 73 9 -14 20 -15 38 0 13 11 32 14 41 6 9 -8 10 -5 3 8 -7 13 -2 29 12 35 14 6 5 7 -20 0 -28 -7 -45 -2 -45 14 0 14 -6 19 -13 12 -7 -8 -24 -5 -37 6 -13 11 -66 26 -117 33 l-93 12 0 -121z"/> <path d="M1400 4763 c0 -31 81 -50 106 -25 16 16 13 22 -10 22 -18 0 -47 5 -64 12 -18 7 -32 3 -32 -9z"/> <path d="M1827 4715 c-5 -8 -20 -10 -33 -2 -13 7 -17 6 -8 -4 14 -15 195 -15 210 1 3 3 -31 9 -76 13 -46 5 -87 1 -93 -8z"/> <path d="M2065 4698 c-57 -21 -59 -58 -3 -43 25 6 49 -1 60 -17 10 -17 18 -19 18 -5 0 14 38 22 100 22 55 -1 106 4 112 10 16 17 -165 42 -200 28 -16 -6 -32 -3 -36 6 -3 9 -26 9 -51 -1z"/> <path d="M6713 4706 c-8 -8 -45 -12 -81 -10 -45 3 -71 -5 -79 -25 -10 -26 -5 -27 28 -6 26 16 45 18 55 5 20 -28 64 -34 64 -9 0 12 9 16 20 9 26 -16 143 8 132 27 -12 19 -122 26 -139 9z"/> <path d="M2380 4682 c0 -11 34 -26 75 -32 41 -7 91 -15 110 -19 19 -4 40 1 47 12 7 11 21 12 35 1 13 -10 37 -19 53 -20 17 -1 63 -5 104 -9 50 -5 78 1 85 19 7 19 27 23 66 13 30 -8 71 -13 90 -12 20 1 31 -5 26 -14 -6 -9 3 -22 20 -29 17 -6 26 -4 20 6 -6 10 10 24 34 32 66 22 -158 45 -473 49 -142 1 -266 7 -275 13 -9 6 -17 1 -17 -10z"/> <path d="M6145 4665 c-47 -4 -85 -17 -85 -28 0 -12 18 -17 40 -11 22 6 45 2 52 -9 7 -12 27 -6 48 13 29 26 45 29 79 11 43 -23 81 -14 81 20 0 19 -46 20 -215 4z"/> <path d="M3220 4644 c25 -16 164 -31 430 -47 82 -5 130 4 130 24 0 12 -37 19 -85 17 -47 -2 -179 3 -295 10 -130 9 -199 7 -180 -4z"/> <path d="M5694 4647 c-5 -5 -100 -9 -211 -9 -129 0 -203 -8 -203 -21 0 -12 13 -16 29 -10 17 6 35 2 42 -9 7 -12 25 -16 39 -11 14 5 33 2 43 -7 9 -9 65 -8 124 3 59 11 120 15 136 9 16 -6 34 2 40 18 14 37 41 37 107 4 42 -22 54 -21 74 5 17 21 25 23 25 6 1 -14 15 -25 32 -25 20 0 26 9 16 25 -12 20 -8 20 16 0 24 -20 30 -19 30 5 0 27 -313 43 -339 17z"/> <path d="M3816 4616 c19 -19 379 -28 397 -10 13 13 -59 18 -307 22 -57 1 -98 -4 -90 -12z"/> <path d="M4360 4621 c-111 -9 -120 -13 -61 -23 37 -7 103 -4 146 5 43 10 107 11 142 2 35 -8 194 -10 353 -4 160 6 272 13 250 16 -92 11 -710 15 -830 4z"/> </g> </svg> 