<svg width="40" height="44" viewBox="0 0 40 44" fill="none" xmlns="http://www.w3.org/2000/svg">
<path d="M34.4535 20.4986C34.0393 20.4986 33.6422 20.3331 33.3493 20.0387C33.0565 19.7443 32.8919 19.3449 32.8919 18.9285V14.4947C32.8919 8.21449 27.1206 3.19034 20.025 3.19034C12.9294 3.19034 7.15803 8.2773 7.15803 14.4947V18.9285C7.15803 19.3449 6.99351 19.7443 6.70067 20.0387C6.40782 20.3331 6.01064 20.4986 5.5965 20.4986C5.18236 20.4986 4.78518 20.3331 4.49234 20.0387C4.1995 19.7443 4.03498 19.3449 4.03498 18.9285V14.4947C4.03498 6.50628 11.218 0 20.025 0C28.832 0 36.015 6.50628 36.015 14.4947V18.9285C36.0167 19.1351 35.9774 19.3401 35.8995 19.5313C35.8216 19.7225 35.7067 19.8963 35.5613 20.0424C35.416 20.1886 35.2432 20.3041 35.053 20.3824C34.8628 20.4608 34.659 20.5002 34.4535 20.4986Z" fill="#00AD9A"/>
<path d="M30.2311 35.2696C29.817 35.2696 29.4198 35.1041 29.1269 34.8097C28.8341 34.5153 28.6696 34.1159 28.6696 33.6995V18.7903C28.6826 18.3827 28.8528 17.9961 29.1442 17.7125C29.4357 17.4288 29.8255 17.2703 30.2311 17.2705C35.6152 17.2705 40 21.3275 40 26.3014C40 31.2754 35.6152 35.2696 30.2311 35.2696ZM31.7926 20.5237V31.9662C33.1598 31.7386 34.4083 31.0476 35.3309 30.008C36.2535 28.9684 36.7947 27.6427 36.8645 26.2512C36.7975 24.8575 36.2576 23.5289 35.3347 22.4867C34.4119 21.4445 33.1618 20.7517 31.7926 20.5237ZM9.7689 35.2696C4.38476 35.2696 0 31.2251 0 26.2512C0 21.2773 4.38476 17.2705 9.7689 17.2705C10.183 17.2705 10.5802 17.4359 10.8731 17.7304C11.1659 18.0248 11.3304 18.4242 11.3304 18.8406V33.6995C11.3304 34.1159 11.1659 34.5153 10.8731 34.8097C10.5802 35.1041 10.183 35.2696 9.7689 35.2696ZM8.20737 20.5237C6.83823 20.7517 5.58813 21.4445 4.66528 22.4867C3.74243 23.5289 3.20255 24.8575 3.13554 26.2512C3.20532 27.6427 3.74646 28.9684 4.66907 30.008C5.59168 31.0476 6.84024 31.7386 8.20737 31.9662V20.5237Z" fill="#00AD9A"/>
<path d="M29.7189 40.3816H24.5472C24.133 40.3816 23.7358 40.2162 23.443 39.9218C23.1502 39.6273 22.9856 39.228 22.9856 38.8116C22.9856 38.3952 23.1502 37.9958 23.443 37.7014C23.7358 37.407 24.133 37.2415 24.5472 37.2415H29.7189C30.5273 37.2415 31.3026 36.9187 31.8743 36.3439C32.4459 35.7692 32.767 34.9896 32.767 34.1768V33.486C32.767 33.0696 32.9315 32.6702 33.2244 32.3758C33.5172 32.0814 33.9144 31.9159 34.3285 31.9159C34.7427 31.9159 35.1399 32.0814 35.4327 32.3758C35.7256 32.6702 35.8901 33.0696 35.8901 33.486V34.1768C35.8901 35.8224 35.2399 37.4007 34.0826 38.5643C32.9253 39.7279 31.3556 40.3816 29.7189 40.3816Z" fill="#00AD9A"/>
<path d="M21.8738 43.3333H18.7883C17.6552 43.3333 16.5685 42.8808 15.7673 42.0752C14.966 41.2696 14.5159 40.177 14.5159 39.0377V38.8618C14.5192 37.7247 14.9708 36.6353 15.7717 35.8325C16.5725 35.0296 17.6573 34.5787 18.7883 34.5787H21.8738C23.0036 34.5787 24.0871 35.03 24.886 35.8332C25.6849 36.6365 26.1337 37.7259 26.1337 38.8618V39.0377C26.1337 40.1748 25.6853 41.2655 24.8868 42.0707C24.0882 42.876 23.0048 43.33 21.8738 43.3333ZM18.8132 37.7188C18.5106 37.7188 18.2201 37.8388 18.005 38.0528C17.7898 38.2668 17.6673 38.5575 17.664 38.8618V39.0377C17.664 39.3442 17.785 39.6381 18.0006 39.8548C18.2161 40.0715 18.5084 40.1932 18.8132 40.1932H21.8738C22.1765 40.1899 22.4656 40.0667 22.6784 39.8504C22.8913 39.634 23.0106 39.342 23.0106 39.0377V38.8618C23.0106 38.5587 22.8909 38.268 22.6777 38.0536C22.4645 37.8393 22.1753 37.7188 21.8738 37.7188H18.8132Z" fill="#00AD9A"/>
</svg>
