<svg width="47" height="31" viewBox="0 0 47 31" fill="none" xmlns="http://www.w3.org/2000/svg">
<path d="M44.1782 4.76071C43.4797 4.4578 42.7042 4.35926 41.9481 4.47737C41.192 4.59547 40.4886 4.925 39.9253 5.425L34.9828 9.85357V6.64286C34.9828 4.88106 34.2562 3.19143 32.9628 1.94565C31.6695 0.699871 29.9153 0 28.0862 0H7.39655C5.56747 0 3.81331 0.699871 2.51995 1.94565C1.2266 3.19143 0.5 4.88106 0.5 6.64286V24.3571C0.5 26.1189 1.2266 27.8086 2.51995 29.0544C3.81331 30.3001 5.56747 31 7.39655 31H28.0862C29.9153 31 31.6695 30.3001 32.9628 29.0544C34.2562 27.8086 34.9828 26.1189 34.9828 24.3571V21.1464L39.9483 25.575C40.6793 26.2124 41.6289 26.5672 42.6149 26.5714C43.1621 26.5702 43.7028 26.457 44.2011 26.2393C44.8792 25.9751 45.46 25.5222 45.8695 24.9385C46.279 24.3547 46.4985 23.6666 46.5 22.9621V8.03786C46.4967 7.33081 46.2738 6.64089 45.86 6.05687C45.4462 5.47284 44.8605 5.02143 44.1782 4.76071ZM30.3851 24.3571C30.3851 24.9444 30.1429 25.5076 29.7117 25.9229C29.2806 26.3381 28.6959 26.5714 28.0862 26.5714H7.39655C6.78686 26.5714 6.20214 26.3381 5.77102 25.9229C5.3399 25.5076 5.0977 24.9444 5.0977 24.3571V6.64286C5.0977 6.05559 5.3399 5.49238 5.77102 5.07712C6.20214 4.66186 6.78686 4.42857 7.39655 4.42857H28.0862C28.6959 4.42857 29.2806 4.66186 29.7117 5.07712C30.1429 5.49238 30.3851 6.05559 30.3851 6.64286V24.3571ZM41.8793 21.2571L35.4195 15.5L41.8793 9.74286V21.2571Z" fill="#697581"/>
</svg>
