<svg width="44" height="44" viewBox="0 0 44 44" fill="none" xmlns="http://www.w3.org/2000/svg">
<path d="M29.7848 14.2152L42 2M42 2H32.2279M42 2V11.7721M36.9556 39.8671C26.2063 50.6164 -6.61592 17.7942 4.13344 7.04487L7.14326 4.03505C7.67166 3.50708 8.31407 3.10729 9.02112 2.8664C9.72817 2.62552 10.481 2.54995 11.2219 2.6455C11.9627 2.74105 12.6717 3.00518 13.2945 3.41759C13.9173 3.83 14.4373 4.37972 14.8144 5.02448L16.1214 7.25741C16.5865 8.0532 16.817 8.9643 16.7863 9.88551C16.7556 10.8067 16.465 11.7005 15.948 12.4635L15.0611 13.7705C14.5836 14.476 14.3668 15.3258 14.4479 16.1738C14.5291 17.0219 14.9031 17.8151 15.5058 18.4172L25.5833 28.4947C26.1857 29.097 26.9791 29.4706 27.8271 29.5513C28.6751 29.632 29.5248 29.4148 30.23 28.9369L31.537 28.0525C32.3003 27.5359 33.1941 27.2457 34.1153 27.2154C35.0366 27.1852 35.9475 27.4161 36.7431 27.8815L38.976 29.1861C39.6206 29.5635 40.1701 30.0836 40.5823 30.7065C40.9945 31.3294 41.2584 32.0385 41.3537 32.7793C41.449 33.5201 41.3732 34.2729 41.1321 34.9798C40.891 35.6868 40.4911 36.329 39.963 36.8572L36.9556 39.8671Z" stroke="#00AD9A" stroke-width="3.25586" stroke-linecap="round" stroke-linejoin="round"/>
</svg>
